<?xml version="1.0" encoding="UTF-8" standalone="no"?>
<svg
   xmlns:dc="http://purl.org/dc/elements/1.1/"
   xmlns:cc="http://creativecommons.org/ns#"
   xmlns:rdf="http://www.w3.org/1999/02/22-rdf-syntax-ns#"
   xmlns:svg="http://www.w3.org/2000/svg"
   xmlns="http://www.w3.org/2000/svg"
   xmlns:sodipodi="http://sodipodi.sourceforge.net/DTD/sodipodi-0.dtd"
   xmlns:inkscape="http://www.inkscape.org/namespaces/inkscape"
   inkscape:export-ydpi="576"
   inkscape:export-xdpi="576"
   inkscape:export-filename="D:\Projeck juli #1\export\filled line\png\18 - Ricksaw.png"
   width="64pt"
   height="64pt"
   viewBox="0 0 22.577778 22.577778"
   version="1.1"
   id="svg831"
   inkscape:version="1.0 (4035a4fb49, 2020-05-01)"
   sodipodi:docname="19 - Petrol Can.svg">
  <defs
     id="defs825">
    <pattern
       id="EMFhbasepattern"
       patternUnits="userSpaceOnUse"
       width="6"
       height="6"
       x="0"
       y="0" />
    <pattern
       id="EMFhbasepattern-9"
       patternUnits="userSpaceOnUse"
       width="6"
       height="6"
       x="0"
       y="0" />
    <pattern
       id="EMFhbasepattern-0"
       patternUnits="userSpaceOnUse"
       width="6"
       height="6"
       x="0"
       y="0" />
    <pattern
       id="EMFhbasepattern-7"
       patternUnits="userSpaceOnUse"
       width="6"
       height="6"
       x="0"
       y="0" />
    <pattern
       id="EMFhbasepattern-2"
       patternUnits="userSpaceOnUse"
       width="6"
       height="6"
       x="0"
       y="0" />
    <pattern
       id="EMFhbasepattern-98"
       patternUnits="userSpaceOnUse"
       width="6"
       height="6"
       x="0"
       y="0" />
    <pattern
       id="EMFhbasepattern-6"
       patternUnits="userSpaceOnUse"
       width="6"
       height="6"
       x="0"
       y="0" />
    <pattern
       id="EMFhbasepattern-01"
       patternUnits="userSpaceOnUse"
       width="6"
       height="6"
       x="0"
       y="0" />
    <pattern
       id="EMFhbasepattern-07"
       patternUnits="userSpaceOnUse"
       width="6"
       height="6"
       x="0"
       y="0" />
    <pattern
       id="EMFhbasepattern-8"
       patternUnits="userSpaceOnUse"
       width="6"
       height="6"
       x="0"
       y="0" />
    <pattern
       id="EMFhbasepattern-4"
       patternUnits="userSpaceOnUse"
       width="6"
       height="6"
       x="0"
       y="0" />
    <pattern
       id="EMFhbasepattern-40"
       patternUnits="userSpaceOnUse"
       width="6"
       height="6"
       x="0"
       y="0" />
    <pattern
       id="EMFhbasepattern-08"
       patternUnits="userSpaceOnUse"
       width="6"
       height="6"
       x="0"
       y="0" />
    <pattern
       id="EMFhbasepattern-04"
       patternUnits="userSpaceOnUse"
       width="6"
       height="6"
       x="0"
       y="0" />
    <pattern
       id="EMFhbasepattern-014"
       patternUnits="userSpaceOnUse"
       width="6"
       height="6"
       x="0"
       y="0" />
    <pattern
       id="EMFhbasepattern-27"
       patternUnits="userSpaceOnUse"
       width="6"
       height="6"
       x="0"
       y="0" />
    <pattern
       id="EMFhbasepattern-09"
       patternUnits="userSpaceOnUse"
       width="6"
       height="6"
       x="0"
       y="0" />
    <pattern
       id="EMFhbasepattern-5"
       patternUnits="userSpaceOnUse"
       width="6"
       height="6"
       x="0"
       y="0" />
    <pattern
       id="EMFhbasepattern-018"
       patternUnits="userSpaceOnUse"
       width="6"
       height="6"
       x="0"
       y="0" />
  </defs>
  <sodipodi:namedview
     inkscape:lockguides="true"
     id="base"
     pagecolor="#ffffff"
     bordercolor="#666666"
     borderopacity="1.0"
     inkscape:pageopacity="0.0"
     inkscape:pageshadow="2"
     inkscape:zoom="6.2578125"
     inkscape:cx="42.666667"
     inkscape:cy="42.666667"
     inkscape:document-units="pt"
     inkscape:current-layer="layer1"
     showgrid="false"
     units="pt"
     inkscape:window-width="1366"
     inkscape:window-height="705"
     inkscape:window-x="-8"
     inkscape:window-y="-8"
     inkscape:window-maximized="1"
     inkscape:pagecheckerboard="true"
     inkscape:showpageshadow="false"
     inkscape:object-paths="true"
     inkscape:snap-intersection-paths="true"
     inkscape:snap-smooth-nodes="true"
     inkscape:snap-midpoints="true"
     showguides="true"
     inkscape:snap-bbox="true"
     inkscape:bbox-nodes="true"
     inkscape:snap-nodes="false"
     inkscape:snap-global="true"
     inkscape:document-rotation="0">
    <inkscape:grid
       type="xygrid"
       id="grid1378" />
    <sodipodi:guide
       position="0.97013831,21.607643"
       orientation="78.000048,0"
       id="guide1380"
       inkscape:locked="true" />
    <sodipodi:guide
       position="0.97013831,0.97013129"
       orientation="0,78.000005"
       id="guide1382"
       inkscape:locked="true" />
    <sodipodi:guide
       position="21.607639,0.97013129"
       orientation="-78.000048,0"
       id="guide1384"
       inkscape:locked="true" />
    <sodipodi:guide
       position="21.607639,21.607643"
       orientation="0,-78.000005"
       id="guide1386"
       inkscape:locked="true" />
  </sodipodi:namedview>
  <metadata
     id="metadata828">
    <rdf:RDF>
      <cc:Work
         rdf:about="">
        <dc:format>image/svg+xml</dc:format>
        <dc:type
           rdf:resource="http://purl.org/dc/dcmitype/StillImage" />
        <dc:title></dc:title>
      </cc:Work>
    </rdf:RDF>
  </metadata>
  <g
     inkscape:label="Icon"
     inkscape:groupmode="layer"
     id="layer1"
     transform="translate(0,-274.42223)">
    <g
       transform="matrix(1.2568322,0,0,1.2568322,-38.308735,-38.586693)"
       style="display:inline;stroke-width:0.795651"
       id="g728">
      <g
         style="stroke-width:0.795651"
         id="g685">
        <path
           style="color:#000000;font-style:normal;font-variant:normal;font-weight:normal;font-stretch:normal;font-size:medium;line-height:normal;font-family:sans-serif;font-variant-ligatures:normal;font-variant-position:normal;font-variant-caps:normal;font-variant-numeric:normal;font-variant-alternates:normal;font-variant-east-asian:normal;font-feature-settings:normal;font-variation-settings:normal;text-indent:0;text-align:start;text-decoration:none;text-decoration-line:none;text-decoration-style:solid;text-decoration-color:#000000;letter-spacing:normal;word-spacing:normal;text-transform:none;writing-mode:lr-tb;direction:ltr;text-orientation:mixed;dominant-baseline:auto;baseline-shift:baseline;text-anchor:start;white-space:normal;shape-padding:0;shape-margin:0;inline-size:0;clip-rule:nonzero;display:inline;overflow:visible;visibility:visible;isolation:auto;mix-blend-mode:normal;color-interpolation:sRGB;color-interpolation-filters:linearRGB;solid-color:#000000;solid-opacity:1;vector-effect:none;fill:#3a4d5c;fill-opacity:1;fill-rule:nonzero;stroke:none;stroke-width:0.421032;stroke-linecap:round;stroke-linejoin:round;stroke-miterlimit:4;stroke-dasharray:none;stroke-dashoffset:0;stroke-opacity:1;color-rendering:auto;image-rendering:auto;shape-rendering:auto;text-rendering:auto;enable-background:accumulate;stop-color:#000000"
           d="m 32.078125,249.82812 a 0.26460996,0.26460996 0 0 0 -0.265625,0.26563 v 1.05664 a 0.26460996,0.26460996 0 0 0 0.265625,0.26563 h 2.341797 l 1.878906,1.60742 a 0.26460996,0.26460996 0 0 0 0.373047,-0.0293 l 1.097656,-1.2793 a 0.26460996,0.26460996 0 0 0 -0.05859,-0.39648 l -2.259766,-1.44727 a 0.26460996,0.26460996 0 0 0 -0.144531,-0.043 z"
           id="path469" />
        <path
           d="m 32.078146,249.82818 a 0.26460996,0.26460996 0 0 0 -0.265616,0.26562 v 0.52916 a 0.26460996,0.26460996 0 0 1 0.265616,-0.26562 h 3.228745 a 0.26460996,0.26460996 0 0 1 0.144176,0.0429 l 2.224154,1.42472 0.09457,-0.11008 a 0.26460996,0.26460996 0 0 0 -0.05891,-0.39635 l -2.259812,-1.44746 a 0.26460996,0.26460996 0 0 0 -0.144176,-0.0429 z"
           style="color:#000000;font-style:normal;font-variant:normal;font-weight:normal;font-stretch:normal;font-size:medium;line-height:normal;font-family:sans-serif;font-variant-ligatures:normal;font-variant-position:normal;font-variant-caps:normal;font-variant-numeric:normal;font-variant-alternates:normal;font-variant-east-asian:normal;font-feature-settings:normal;font-variation-settings:normal;text-indent:0;text-align:start;text-decoration:none;text-decoration-line:none;text-decoration-style:solid;text-decoration-color:#000000;letter-spacing:normal;word-spacing:normal;text-transform:none;writing-mode:lr-tb;direction:ltr;text-orientation:mixed;dominant-baseline:auto;baseline-shift:baseline;text-anchor:start;white-space:normal;shape-padding:0;shape-margin:0;inline-size:0;clip-rule:nonzero;display:inline;overflow:visible;visibility:visible;isolation:auto;mix-blend-mode:normal;color-interpolation:sRGB;color-interpolation-filters:linearRGB;solid-color:#000000;solid-opacity:1;vector-effect:none;fill:#143441;fill-opacity:1;fill-rule:nonzero;stroke:none;stroke-width:0.421032;stroke-linecap:round;stroke-linejoin:round;stroke-miterlimit:4;stroke-dasharray:none;stroke-dashoffset:0;stroke-opacity:1;color-rendering:auto;image-rendering:auto;shape-rendering:auto;text-rendering:auto;enable-background:accumulate;stop-color:#000000"
           id="path650" />
        <path
           sodipodi:nodetypes="ccccccc"
           id="path573"
           style="color:#000000;font-style:normal;font-variant:normal;font-weight:normal;font-stretch:normal;font-size:medium;line-height:normal;font-family:sans-serif;font-variant-ligatures:normal;font-variant-position:normal;font-variant-caps:normal;font-variant-numeric:normal;font-variant-alternates:normal;font-variant-east-asian:normal;font-feature-settings:normal;font-variation-settings:normal;text-indent:0;text-align:start;text-decoration:none;text-decoration-line:none;text-decoration-style:solid;text-decoration-color:#000000;letter-spacing:normal;word-spacing:normal;text-transform:none;writing-mode:lr-tb;direction:ltr;text-orientation:mixed;dominant-baseline:auto;baseline-shift:baseline;text-anchor:start;white-space:normal;shape-padding:0;shape-margin:0;inline-size:0;clip-rule:nonzero;display:inline;overflow:visible;visibility:visible;isolation:auto;mix-blend-mode:normal;color-interpolation:sRGB;color-interpolation-filters:linearRGB;solid-color:#000000;solid-opacity:1;vector-effect:none;fill:#143441;fill-opacity:1;fill-rule:nonzero;stroke:none;stroke-width:1.5913;stroke-linecap:round;stroke-linejoin:round;stroke-miterlimit:4;stroke-dasharray:none;stroke-dashoffset:0;stroke-opacity:1;color-rendering:auto;image-rendering:auto;shape-rendering:auto;text-rendering:auto;enable-background:accumulate;stop-color:#000000"
           d="m 139.44308,-110.61226 -5.08034,6.00404 2.83062,2.39728 c 0.41984,0.35741 1.04974,0.30761 1.4082,-0.11133 l 4.15039,-4.83398 c 0.39876,-0.46259 0.29341,-1.17143 -0.22265,-1.49805 z"
           transform="matrix(0.26458334,0,0,0.26458334,0,280.06666)" />
        <path
           style="color:#000000;font-style:normal;font-variant:normal;font-weight:normal;font-stretch:normal;font-size:medium;line-height:normal;font-family:sans-serif;font-variant-ligatures:normal;font-variant-position:normal;font-variant-caps:normal;font-variant-numeric:normal;font-variant-alternates:normal;font-variant-east-asian:normal;font-feature-settings:normal;font-variation-settings:normal;text-indent:0;text-align:start;text-decoration:none;text-decoration-line:none;text-decoration-style:solid;text-decoration-color:#000000;letter-spacing:normal;word-spacing:normal;text-transform:none;writing-mode:lr-tb;direction:ltr;text-orientation:mixed;dominant-baseline:auto;baseline-shift:baseline;text-anchor:start;white-space:normal;shape-padding:0;shape-margin:0;inline-size:0;clip-rule:nonzero;display:inline;overflow:visible;visibility:visible;isolation:auto;mix-blend-mode:normal;color-interpolation:sRGB;color-interpolation-filters:linearRGB;solid-color:#000000;solid-opacity:1;vector-effect:none;fill:#fca311;fill-opacity:1;fill-rule:nonzero;stroke:none;stroke-width:0.421032;stroke-linecap:round;stroke-linejoin:round;stroke-miterlimit:4;stroke-dasharray:none;stroke-dashoffset:0;stroke-opacity:1;color-rendering:auto;image-rendering:auto;shape-rendering:auto;text-rendering:auto;enable-background:accumulate;stop-color:#000000"
           d="m 37.792969,251.02344 a 0.26460996,0.26460996 0 0 0 -0.207031,0.0918 l -1.587891,1.85157 a 0.26460996,0.26460996 0 0 0 0.0293,0.37304 l 0.927734,0.80274 a 0.26460996,0.26460996 0 0 0 0.378906,-0.0332 l 1.576172,-1.91993 a 0.26460996,0.26460996 0 0 0 -0.03906,-0.375 l -0.917969,-0.73437 a 0.26460996,0.26460996 0 0 0 -0.160156,-0.0566 z"
           id="path820" />
        <path
           sodipodi:nodetypes="ccccccc"
           id="path532"
           style="color:#000000;font-style:normal;font-variant:normal;font-weight:normal;font-stretch:normal;font-size:medium;line-height:normal;font-family:sans-serif;font-variant-ligatures:normal;font-variant-position:normal;font-variant-caps:normal;font-variant-numeric:normal;font-variant-alternates:normal;font-variant-east-asian:normal;font-feature-settings:normal;font-variation-settings:normal;text-indent:0;text-align:start;text-decoration:none;text-decoration-line:none;text-decoration-style:solid;text-decoration-color:#000000;letter-spacing:normal;word-spacing:normal;text-transform:none;writing-mode:lr-tb;direction:ltr;text-orientation:mixed;dominant-baseline:auto;baseline-shift:baseline;text-anchor:start;white-space:normal;shape-padding:0;shape-margin:0;inline-size:0;clip-rule:nonzero;display:inline;overflow:visible;visibility:visible;isolation:auto;mix-blend-mode:normal;color-interpolation:sRGB;color-interpolation-filters:linearRGB;solid-color:#000000;solid-opacity:1;vector-effect:none;fill:#ec7523;fill-opacity:1;fill-rule:nonzero;stroke:none;stroke-width:1.5913;stroke-linecap:round;stroke-linejoin:round;stroke-miterlimit:4;stroke-dasharray:none;stroke-dashoffset:0;stroke-opacity:1;color-rendering:auto;image-rendering:auto;shape-rendering:auto;text-rendering:auto;enable-background:accumulate;stop-color:#000000"
           d="m 144.6429,-107.76979 -6.5922,7.68129 1.62118,2.108031 c 0.42711,0.371609 1.07724,0.314921 1.43359,-0.125 l 5.95703,-7.257811 c 0.3539,-0.43086 0.28711,-1.06792 -0.14844,-1.41602 z"
           transform="matrix(0.26458334,0,0,0.26458334,0,280.06666)" />
        <path
           id="path778"
           style="color:#000000;font-style:normal;font-variant:normal;font-weight:normal;font-stretch:normal;font-size:medium;line-height:normal;font-family:sans-serif;font-variant-ligatures:normal;font-variant-position:normal;font-variant-caps:normal;font-variant-numeric:normal;font-variant-alternates:normal;font-variant-east-asian:normal;font-feature-settings:normal;font-variation-settings:normal;text-indent:0;text-align:start;text-decoration:none;text-decoration-line:none;text-decoration-style:solid;text-decoration-color:#000000;letter-spacing:normal;word-spacing:normal;text-transform:none;writing-mode:lr-tb;direction:ltr;text-orientation:mixed;dominant-baseline:auto;baseline-shift:baseline;text-anchor:start;white-space:normal;shape-padding:0;shape-margin:0;inline-size:0;clip-rule:nonzero;display:inline;overflow:visible;visibility:visible;isolation:auto;mix-blend-mode:normal;color-interpolation:sRGB;color-interpolation-filters:linearRGB;solid-color:#000000;solid-opacity:1;vector-effect:none;fill:#fca311;fill-opacity:1;fill-rule:nonzero;stroke:none;stroke-width:0.421032;stroke-linecap:round;stroke-linejoin:round;stroke-miterlimit:4;stroke-dasharray:none;stroke-dashoffset:0;stroke-opacity:1;color-rendering:auto;image-rendering:auto;shape-rendering:auto;text-rendering:auto;enable-background:accumulate;stop-color:#000000"
           d="m 40.015645,250.88653 c -0.397288,0 -0.826733,0.12889 -1.107424,0.47077 l -2.427759,2.95538 c -0.116512,0.14191 -0.220157,0.298 -0.298691,0.47232 -0.03702,0.0798 -0.03198,0.17274 0.01344,0.24805 l 6.769613,11.07219 c 0.04776,0.0785 0.132868,0.12667 0.224793,0.12712 l 2.054654,0.002 c 1.057344,0.002 1.761991,-0.86087 1.761989,-1.91823 v -11.48405 c 0,-1.05841 -0.701515,-1.92203 -1.75992,-1.92598 z m 2.398305,0.93224 h 2.519741 c 0.606713,0 1.103291,0.49659 1.103294,1.10329 3e-6,0.60671 -0.496583,1.10381 -1.103294,1.10381 H 42.41395 c -0.606711,0 -1.103297,-0.4971 -1.103291,-1.10381 0,-0.6067 0.49658,-1.10329 1.103291,-1.10329 z"
           sodipodi:nodetypes="cccccccccsccsssssss" />
        <path
           id="path550"
           style="color:#000000;font-style:normal;font-variant:normal;font-weight:normal;font-stretch:normal;font-size:medium;line-height:normal;font-family:sans-serif;font-variant-ligatures:normal;font-variant-position:normal;font-variant-caps:normal;font-variant-numeric:normal;font-variant-alternates:normal;font-variant-east-asian:normal;font-feature-settings:normal;font-variation-settings:normal;text-indent:0;text-align:start;text-decoration:none;text-decoration-line:none;text-decoration-style:solid;text-decoration-color:#000000;letter-spacing:normal;word-spacing:normal;text-transform:none;writing-mode:lr-tb;direction:ltr;text-orientation:mixed;dominant-baseline:auto;baseline-shift:baseline;text-anchor:start;white-space:normal;shape-padding:0;shape-margin:0;inline-size:0;clip-rule:nonzero;display:inline;overflow:visible;visibility:visible;isolation:auto;mix-blend-mode:normal;color-interpolation:sRGB;color-interpolation-filters:linearRGB;solid-color:#000000;solid-opacity:1;vector-effect:none;fill:#ec7523;fill-opacity:1;fill-rule:nonzero;stroke:none;stroke-width:1.5913;stroke-linecap:round;stroke-linejoin:round;stroke-miterlimit:4;stroke-dasharray:none;stroke-dashoffset:0;stroke-opacity:1;color-rendering:auto;image-rendering:auto;shape-rendering:auto;text-rendering:auto;enable-background:accumulate;stop-color:#000000"
           d="m 139.24414,-97.730469 c -0.36419,0 -0.73514,0.02986 -1.10937,0.08008 -0.58242,0.64676 -1.02338,1.456888 -1.38477,2.097657 -0.13992,0.301523 -0.12088,0.652861 0.0508,0.9375 l 25.58594,41.847656 c 0.18052,0.296863 0.50217,0.478765 0.84961,0.480469 l 5.2539,0.0059 c 2.07058,-1.447712 3.43362,-3.845781 3.4336,-6.546875 v -30.884766 c 0,-4.387351 -3.59131,-7.982952 -7.97852,-7.988281 z"
           transform="matrix(0.26458334,0,0,0.26458334,0,280.06666)"
           sodipodi:nodetypes="ccccccccscc" />
        <path
           style="color:#000000;font-style:normal;font-variant:normal;font-weight:normal;font-stretch:normal;font-size:medium;line-height:normal;font-family:sans-serif;font-variant-ligatures:normal;font-variant-position:normal;font-variant-caps:normal;font-variant-numeric:normal;font-variant-alternates:normal;font-variant-east-asian:normal;font-feature-settings:normal;font-variation-settings:normal;text-indent:0;text-align:start;text-decoration:none;text-decoration-line:none;text-decoration-style:solid;text-decoration-color:#000000;letter-spacing:normal;word-spacing:normal;text-transform:none;writing-mode:lr-tb;direction:ltr;text-orientation:mixed;dominant-baseline:auto;baseline-shift:baseline;text-anchor:start;white-space:normal;shape-padding:0;shape-margin:0;inline-size:0;clip-rule:nonzero;display:inline;overflow:visible;visibility:visible;isolation:auto;mix-blend-mode:normal;color-interpolation:sRGB;color-interpolation-filters:linearRGB;solid-color:#000000;solid-opacity:1;vector-effect:none;fill:#b01d47;fill-opacity:1;fill-rule:nonzero;stroke:none;stroke-width:0.421032;stroke-linecap:round;stroke-linejoin:round;stroke-miterlimit:4;stroke-dasharray:none;stroke-dashoffset:0;stroke-opacity:1;color-rendering:auto;image-rendering:auto;shape-rendering:auto;text-rendering:auto;enable-background:accumulate;stop-color:#000000"
           d="m 34.648438,254.69141 a 0.26460996,0.26460996 0 0 0 -0.207032,0.0918 l -1.585937,1.85157 a 0.26460996,0.26460996 0 0 0 0.02734,0.37304 l 0.927735,0.80274 a 0.26460996,0.26460996 0 0 0 0.378906,-0.0332 l 1.576172,-1.91992 a 0.26460996,0.26460996 0 0 0 -0.03906,-0.375 l -0.917968,-0.73437 a 0.26460996,0.26460996 0 0 0 -0.160156,-0.0566 z"
           id="path806" />
        <path
           id="path544"
           style="color:#000000;font-style:normal;font-variant:normal;font-weight:normal;font-stretch:normal;font-size:medium;line-height:normal;font-family:sans-serif;font-variant-ligatures:normal;font-variant-position:normal;font-variant-caps:normal;font-variant-numeric:normal;font-variant-alternates:normal;font-variant-east-asian:normal;font-feature-settings:normal;font-variation-settings:normal;text-indent:0;text-align:start;text-decoration:none;text-decoration-line:none;text-decoration-style:solid;text-decoration-color:#000000;letter-spacing:normal;word-spacing:normal;text-transform:none;writing-mode:lr-tb;direction:ltr;text-orientation:mixed;dominant-baseline:auto;baseline-shift:baseline;text-anchor:start;white-space:normal;shape-padding:0;shape-margin:0;inline-size:0;clip-rule:nonzero;display:inline;overflow:visible;visibility:visible;isolation:auto;mix-blend-mode:normal;color-interpolation:sRGB;color-interpolation-filters:linearRGB;solid-color:#000000;solid-opacity:1;vector-effect:none;fill:#801231;fill-opacity:1;fill-rule:nonzero;stroke:none;stroke-width:0.421032;stroke-linecap:round;stroke-linejoin:round;stroke-miterlimit:4;stroke-dasharray:none;stroke-dashoffset:0;stroke-opacity:1;color-rendering:auto;image-rendering:auto;shape-rendering:auto;text-rendering:auto;enable-background:accumulate;stop-color:#000000"
           d="m 35.75234,255.07955 -1.898592,2.31046 0.485759,0.42064 a 0.26460996,0.26460996 0 0 0 0.379304,-0.0331 l 1.576131,-1.9203 a 0.26460996,0.26460996 0 0 0 -0.03927,-0.37465 z" />
        <path
           id="path792"
           style="color:#000000;font-style:normal;font-variant:normal;font-weight:normal;font-stretch:normal;font-size:medium;line-height:normal;font-family:sans-serif;font-variant-ligatures:normal;font-variant-position:normal;font-variant-caps:normal;font-variant-numeric:normal;font-variant-alternates:normal;font-variant-east-asian:normal;font-feature-settings:normal;font-variation-settings:normal;text-indent:0;text-align:start;text-decoration:none;text-decoration-line:none;text-decoration-style:solid;text-decoration-color:#000000;letter-spacing:normal;word-spacing:normal;text-transform:none;writing-mode:lr-tb;direction:ltr;text-orientation:mixed;dominant-baseline:auto;baseline-shift:baseline;text-anchor:start;white-space:normal;shape-padding:0;shape-margin:0;inline-size:0;clip-rule:nonzero;display:inline;overflow:visible;visibility:visible;isolation:auto;mix-blend-mode:normal;color-interpolation:sRGB;color-interpolation-filters:linearRGB;solid-color:#000000;solid-opacity:1;vector-effect:none;fill:#dc1c4b;fill-opacity:1;fill-rule:nonzero;stroke:none;stroke-width:0.421032;stroke-linecap:round;stroke-linejoin:round;stroke-miterlimit:4;stroke-dasharray:none;stroke-dashoffset:0;stroke-opacity:1;color-rendering:auto;image-rendering:auto;shape-rendering:auto;text-rendering:auto;enable-background:accumulate;stop-color:#000000"
           d="m 36.84168,254.59173 c -0.198668,0 -0.401834,0.0308 -0.593762,0.10542 -0.191985,0.0745 -0.373325,0.19442 -0.513665,0.36535 l -2.427759,2.95486 c -0.237664,0.28949 -0.434162,0.65013 -0.433564,1.07229 l 0.0078,5.42034 c 0.0013,0.95233 0.780378,1.72863 1.732711,1.72806 l 8.763805,-0.006 c 0.952301,-5.8e-4 1.728068,-0.77834 1.72806,-1.73064 v -8.1716 c 0,-0.95239 -0.775669,-1.72948 -1.72806,-1.73064 z m 2.457214,1.0542 h 3.66386 c 0.525423,0 0.957046,0.43163 0.957046,0.95705 5e-6,0.52543 -0.43162,0.95704 -0.957046,0.95704 h -3.66386 c -0.525425,0 -0.957051,-0.43161 -0.957048,-0.95704 3e-6,-0.52542 0.431625,-0.95705 0.957048,-0.95705 z" />
        <path
           style="color:#000000;font-style:normal;font-variant:normal;font-weight:normal;font-stretch:normal;font-size:medium;line-height:normal;font-family:sans-serif;font-variant-ligatures:normal;font-variant-position:normal;font-variant-caps:normal;font-variant-numeric:normal;font-variant-alternates:normal;font-variant-east-asian:normal;font-feature-settings:normal;font-variation-settings:normal;text-indent:0;text-align:start;text-decoration:none;text-decoration-line:none;text-decoration-style:solid;text-decoration-color:#000000;letter-spacing:normal;word-spacing:normal;text-transform:none;writing-mode:lr-tb;direction:ltr;text-orientation:mixed;dominant-baseline:auto;baseline-shift:baseline;text-anchor:start;white-space:normal;shape-padding:0;shape-margin:0;inline-size:0;clip-rule:nonzero;display:inline;overflow:visible;visibility:visible;isolation:auto;mix-blend-mode:normal;color-interpolation:sRGB;color-interpolation-filters:linearRGB;solid-color:#000000;solid-opacity:1;vector-effect:none;fill:#3a4d5c;fill-opacity:1;fill-rule:nonzero;stroke:none;stroke-width:0.421032;stroke-linecap:round;stroke-linejoin:round;stroke-miterlimit:4;stroke-dasharray:none;stroke-dashoffset:0;stroke-opacity:1;color-rendering:auto;image-rendering:auto;shape-rendering:auto;text-rendering:auto;enable-background:accumulate;stop-color:#000000"
           d="m 33.994141,253.30273 a 0.26460996,0.26460996 0 0 0 -0.195313,0.0918 l -2.482422,2.875 a 0.26460996,0.26460996 0 0 0 0.02539,0.37109 l 1.009765,0.89454 a 0.26460996,0.26460996 0 0 0 0.375,-0.0274 l 2.548829,-2.97461 a 0.26460996,0.26460996 0 0 0 -0.04492,-0.38476 l -1.074219,-0.79492 a 0.26460996,0.26460996 0 0 0 -0.162109,-0.0508 z"
           id="path440" />
        <path
           style="color:#000000;font-style:normal;font-variant:normal;font-weight:normal;font-stretch:normal;font-size:medium;line-height:normal;font-family:sans-serif;font-variant-ligatures:normal;font-variant-position:normal;font-variant-caps:normal;font-variant-numeric:normal;font-variant-alternates:normal;font-variant-east-asian:normal;font-feature-settings:normal;font-variation-settings:normal;text-indent:0;text-align:start;text-decoration:none;text-decoration-line:none;text-decoration-style:solid;text-decoration-color:#000000;letter-spacing:normal;word-spacing:normal;text-transform:none;writing-mode:lr-tb;direction:ltr;text-orientation:mixed;dominant-baseline:auto;baseline-shift:baseline;text-anchor:start;white-space:normal;shape-padding:0;shape-margin:0;inline-size:0;clip-rule:nonzero;display:inline;overflow:visible;visibility:visible;isolation:auto;mix-blend-mode:normal;color-interpolation:sRGB;color-interpolation-filters:linearRGB;solid-color:#000000;solid-opacity:1;vector-effect:none;fill:#b01d47;fill-opacity:1;fill-rule:nonzero;stroke:none;stroke-width:0.421032;stroke-linecap:round;stroke-linejoin:round;stroke-miterlimit:4;stroke-dasharray:none;stroke-dashoffset:0;stroke-opacity:1;color-rendering:auto;image-rendering:auto;shape-rendering:auto;text-rendering:auto;enable-background:accumulate;stop-color:#000000"
           d="m 35.662109,258.37109 c -0.581366,0 -1.058591,0.47723 -1.058593,1.0586 v 4.49804 c 0,0.5814 0.477203,1.0586 1.058593,1.0586 h 6.935547 c 0.58139,0 1.058594,-0.4772 1.058594,-1.0586 v -4.49804 c 0,-0.58137 -0.477227,-1.0586 -1.058594,-1.0586 z"
           id="path736" />
        <path
           style="color:#000000;font-style:normal;font-variant:normal;font-weight:normal;font-stretch:normal;font-size:medium;line-height:normal;font-family:sans-serif;font-variant-ligatures:normal;font-variant-position:normal;font-variant-caps:normal;font-variant-numeric:normal;font-variant-alternates:normal;font-variant-east-asian:normal;font-feature-settings:normal;font-variation-settings:normal;text-indent:0;text-align:start;text-decoration:none;text-decoration-line:none;text-decoration-style:solid;text-decoration-color:#000000;letter-spacing:normal;word-spacing:normal;text-transform:none;writing-mode:lr-tb;direction:ltr;text-orientation:mixed;dominant-baseline:auto;baseline-shift:baseline;text-anchor:start;white-space:normal;shape-padding:0;shape-margin:0;inline-size:0;clip-rule:nonzero;display:inline;overflow:visible;visibility:visible;isolation:auto;mix-blend-mode:normal;color-interpolation:sRGB;color-interpolation-filters:linearRGB;solid-color:#000000;solid-opacity:1;vector-effect:none;fill:#801231;fill-opacity:1;fill-rule:nonzero;stroke:none;stroke-width:0.421031;stroke-linecap:round;stroke-linejoin:round;stroke-miterlimit:4;stroke-dasharray:none;stroke-dashoffset:0;stroke-opacity:1;color-rendering:auto;image-rendering:auto;shape-rendering:auto;text-rendering:auto;enable-background:accumulate;stop-color:#000000"
           d="m 37.599609,260.07031 c -0.336413,0 -0.615232,0.27882 -0.615234,0.61524 v 1.98437 c 0,0.33642 0.278809,0.61524 0.615234,0.61524 h 3.060547 c 0.336426,0 0.615235,-0.27882 0.615235,-0.61524 v -1.98437 c 0,-0.33642 -0.278821,-0.61524 -0.615235,-0.61524 z"
           id="path689" />
        <path
           id="path511"
           style="color:#000000;font-style:normal;font-variant:normal;font-weight:normal;font-stretch:normal;font-size:medium;line-height:normal;font-family:sans-serif;font-variant-ligatures:normal;font-variant-position:normal;font-variant-caps:normal;font-variant-numeric:normal;font-variant-alternates:normal;font-variant-east-asian:normal;font-feature-settings:normal;font-variation-settings:normal;text-indent:0;text-align:start;text-decoration:none;text-decoration-line:none;text-decoration-style:solid;text-decoration-color:#000000;letter-spacing:normal;word-spacing:normal;text-transform:none;writing-mode:lr-tb;direction:ltr;text-orientation:mixed;dominant-baseline:auto;baseline-shift:baseline;text-anchor:start;white-space:normal;shape-padding:0;shape-margin:0;inline-size:0;clip-rule:nonzero;display:inline;overflow:visible;visibility:visible;isolation:auto;mix-blend-mode:normal;color-interpolation:sRGB;color-interpolation-filters:linearRGB;solid-color:#000000;solid-opacity:1;vector-effect:none;fill:#801231;fill-opacity:1;fill-rule:nonzero;stroke:none;stroke-width:0.421032;stroke-linecap:round;stroke-linejoin:round;stroke-miterlimit:4;stroke-dasharray:none;stroke-dashoffset:0;stroke-opacity:1;color-rendering:auto;image-rendering:auto;shape-rendering:auto;text-rendering:auto;enable-background:accumulate;stop-color:#000000"
           d="m 35.661913,258.37134 c -0.426828,0 -0.7953,0.25794 -0.962216,0.62477 0.132806,-0.0604 0.27852,-0.0956 0.433048,-0.0956 h 6.935495 c 0.581367,0 1.05885,0.47696 1.05885,1.05833 v 4.49792 c 0,0.15454 -0.03569,0.30076 -0.09612,0.43356 0.366842,-0.1669 0.625284,-0.53586 0.625284,-0.96273 v -4.49791 c 0,-0.58137 -0.477483,-1.05834 -1.058849,-1.05834 z" />
        <path
           id="path581"
           style="color:#000000;font-style:normal;font-variant:normal;font-weight:normal;font-stretch:normal;font-size:medium;line-height:normal;font-family:sans-serif;font-variant-ligatures:normal;font-variant-position:normal;font-variant-caps:normal;font-variant-numeric:normal;font-variant-alternates:normal;font-variant-east-asian:normal;font-feature-settings:normal;font-variation-settings:normal;text-indent:0;text-align:start;text-decoration:none;text-decoration-line:none;text-decoration-style:solid;text-decoration-color:#000000;letter-spacing:normal;word-spacing:normal;text-transform:none;writing-mode:lr-tb;direction:ltr;text-orientation:mixed;dominant-baseline:auto;baseline-shift:baseline;text-anchor:start;white-space:normal;shape-padding:0;shape-margin:0;inline-size:0;clip-rule:nonzero;display:inline;overflow:visible;visibility:visible;isolation:auto;mix-blend-mode:normal;color-interpolation:sRGB;color-interpolation-filters:linearRGB;solid-color:#000000;solid-opacity:1;vector-effect:none;fill:#143441;fill-opacity:1;fill-rule:nonzero;stroke:none;stroke-width:0.421032;stroke-linecap:round;stroke-linejoin:round;stroke-miterlimit:4;stroke-dasharray:none;stroke-dashoffset:0;stroke-opacity:1;color-rendering:auto;image-rendering:auto;shape-rendering:auto;text-rendering:auto;enable-background:accumulate;stop-color:#000000"
           d="m 33.99431,253.30289 a 0.26460996,0.26460996 0 0 0 -0.195337,0.0915 l -0.04547,0.0527 0.947746,0.70125 a 0.26460996,0.26460996 0 0 1 0.04496,0.38499 l -2.495455,2.91248 0.100769,0.0894 a 0.26460996,0.26460996 0 0 0 0.375171,-0.0274 l 2.548681,-2.97449 a 0.26460996,0.26460996 0 0 0 -0.04496,-0.38499 l -1.074354,-0.79479 a 0.26460996,0.26460996 0 0 0 -0.161747,-0.0506 z" />
        <path
           sodipodi:nodetypes="cccccscccscc"
           d="m 40.015646,250.88652 c -0.397288,0 -0.826733,0.12889 -1.107425,0.47077 l -0.218075,0.2651 c 0.242809,-0.14523 0.526521,-0.2067 0.796333,-0.2067 l 5.230691,0.0196 c 1.058405,0.004 1.919777,0.86757 1.919777,1.92598 v 11.48405 c 2e-6,0.39345 -0.119729,0.76 -0.324528,1.06505 0.514001,-0.34483 0.69384,-0.93138 0.693837,-1.59422 V 252.8321 c 0,-1.05841 -0.701515,-1.92203 -1.75992,-1.92598 z"
           style="color:#000000;font-style:normal;font-variant:normal;font-weight:normal;font-stretch:normal;font-size:medium;line-height:normal;font-family:sans-serif;font-variant-ligatures:normal;font-variant-position:normal;font-variant-caps:normal;font-variant-numeric:normal;font-variant-alternates:normal;font-variant-east-asian:normal;font-feature-settings:normal;font-variation-settings:normal;text-indent:0;text-align:start;text-decoration:none;text-decoration-line:none;text-decoration-style:solid;text-decoration-color:#000000;letter-spacing:normal;word-spacing:normal;text-transform:none;writing-mode:lr-tb;direction:ltr;text-orientation:mixed;dominant-baseline:auto;baseline-shift:baseline;text-anchor:start;white-space:normal;shape-padding:0;shape-margin:0;inline-size:0;clip-rule:nonzero;display:inline;overflow:visible;visibility:visible;isolation:auto;mix-blend-mode:normal;color-interpolation:sRGB;color-interpolation-filters:linearRGB;solid-color:#000000;solid-opacity:1;vector-effect:none;fill:#ec7523;fill-opacity:1;fill-rule:nonzero;stroke:none;stroke-width:0.421032;stroke-linecap:round;stroke-linejoin:round;stroke-miterlimit:4;stroke-dasharray:none;stroke-dashoffset:0;stroke-opacity:1;color-rendering:auto;image-rendering:auto;shape-rendering:auto;text-rendering:auto;enable-background:accumulate;stop-color:#000000"
           id="path656" />
      </g>
      <path
         id="path803-2"
         style="color:#000000;font-style:normal;font-variant:normal;font-weight:normal;font-stretch:normal;font-size:medium;line-height:normal;font-family:sans-serif;font-variant-ligatures:normal;font-variant-position:normal;font-variant-caps:normal;font-variant-numeric:normal;font-variant-alternates:normal;font-variant-east-asian:normal;font-feature-settings:normal;font-variation-settings:normal;text-indent:0;text-align:start;text-decoration:none;text-decoration-line:none;text-decoration-style:solid;text-decoration-color:#000000;letter-spacing:normal;word-spacing:normal;text-transform:none;writing-mode:lr-tb;direction:ltr;text-orientation:mixed;dominant-baseline:auto;baseline-shift:baseline;text-anchor:start;white-space:normal;shape-padding:0;shape-margin:0;inline-size:0;clip-rule:nonzero;display:inline;overflow:visible;visibility:visible;isolation:auto;mix-blend-mode:normal;color-interpolation:sRGB;color-interpolation-filters:linearRGB;solid-color:#000000;solid-opacity:1;vector-effect:none;fill:#000000;fill-opacity:1;fill-rule:nonzero;stroke:none;stroke-width:0.421032;stroke-linecap:round;stroke-linejoin:round;stroke-miterlimit:4;stroke-dasharray:none;stroke-dashoffset:0;stroke-opacity:1;color-rendering:auto;image-rendering:auto;shape-rendering:auto;text-rendering:auto;enable-background:accumulate;stop-color:#000000"
         d="m 35.378718,249.8178 -3.300574,0.0103 c -0.146934,-5.3e-4 -0.266184,0.11867 -0.265615,0.26561 v 1.05679 c -5.3e-4,0.14693 0.118681,0.26617 0.265615,0.26561 h 2.341978 l 1.677416,1.43454 -0.09974,0.11627 c -0.09491,0.11111 -0.08163,0.27818 0.02946,0.37311 l 0.731737,0.63303 -0.278535,0.33952 c -0.09852,0.12 -0.184084,0.25304 -0.256834,0.39584 -0.182782,0.075 -0.355081,0.19041 -0.489376,0.35398 l -0.211354,0.25735 -0.546222,-0.4377 0.298691,-0.34882 c 0.0997,-0.11702 0.07902,-0.29408 -0.04496,-0.38498 l -1.074354,-0.79474 c -0.0469,-0.0342 -0.103738,-0.052 -0.161748,-0.0506 -0.07515,0.001 -0.146169,0.0346 -0.195336,0.0915 l -2.482535,2.87527 c -0.09455,0.10976 -0.08326,0.27514 0.02532,0.37104 l 1.009759,0.89452 c 0.1109,0.0968 0.279508,0.0845 0.375171,-0.0274 l 0.312642,-0.36484 0.575675,0.49868 -0.308509,0.37569 c -0.237665,0.28949 -0.434163,0.65013 -0.433565,1.07229 l 0.0078,5.42034 c 0.0013,0.95233 0.780378,1.72863 1.732711,1.72806 l 8.576221,-0.006 2.054653,0.002 c 1.057344,0.002 1.921852,-0.86087 1.921846,-1.91823 v -11.48406 c 0,-1.05841 -0.86189,-1.92203 -1.920295,-1.92598 l -5.230173,-0.0191 c -0.397287,0 -0.826733,0.12838 -1.107424,0.47026 l -0.241329,0.29404 -0.713652,-0.57103 c -0.04571,-0.036 -0.102037,-0.0561 -0.160198,-0.0568 -0.07928,-0.002 -0.155453,0.0319 -0.207221,0.092 l -0.0677,0.0791 z m -3.037023,0.5395 h 2.888713 l 1.938898,1.24385 -0.727604,0.84801 -1.750279,-1.4981 c -0.04828,-0.0417 -0.109816,-0.0648 -0.173633,-0.0646 h -2.176095 z m 7.671882,1.05885 5.230688,0.0191 c 0.773126,0.003 1.392164,0.62368 1.392164,1.39681 v 11.48406 c 2e-6,0.77095 -0.61917,1.39074 -1.391129,1.38906 l -0.62942,-5.3e-4 c 0.302384,-0.31191 0.489381,-0.73618 0.489376,-1.20303 v -8.17159 c 0,-0.95239 -0.775668,-1.72948 -1.72806,-1.73064 l -6.439916,-0.008 2.379184,-2.89853 c 0.148926,-0.1814 0.417494,-0.27652 0.697113,-0.27698 z m -2.19108,0.23823 0.507978,0.40618 -1.235067,1.50378 -0.522964,-0.4532 z m 4.591452,0.16344 c -0.606711,0 -1.103292,0.49711 -1.103292,1.10381 -5e-6,0.60671 0.496581,1.10329 1.103292,1.10329 h 2.519741 c 0.606713,0 1.103296,-0.49658 1.103294,-1.10329 -3e-6,-0.6067 -0.496578,-1.10381 -1.103294,-1.10381 z m 0,0.52969 h 2.519741 c 0.32072,0 0.574127,0.25342 0.574127,0.57412 3e-6,0.32073 -0.2534,0.57413 -0.574127,0.57413 h -2.519741 c -0.320726,0 -0.574128,-0.2534 -0.574125,-0.57413 0,-0.3207 0.253407,-0.57412 0.574125,-0.57412 z m -8.374685,1.57805 0.648023,0.47852 -2.187464,2.55695 -0.61133,-0.54312 0.460952,-0.53381 0.18552,0.14882 c 0.113382,0.0913 0.279141,0.0741 0.371036,-0.0388 0.0926,-0.11369 0.07538,-0.28107 -0.03876,-0.37311 l -0.172082,-0.13797 0.625284,-0.72451 0.185518,0.14935 c 0.114205,0.0922 0.281641,0.0739 0.373105,-0.0408 0.09082,-0.1139 0.07217,-0.27971 -0.04134,-0.37103 l -0.171564,-0.1385 z m 2.802414,1.19372 6.535518,0.01 c 0.666639,8.2e-4 1.198893,0.53432 1.198893,1.20096 v 8.17211 c 6e-6,0.66644 -0.532463,1.20058 -1.198893,1.20097 l -8.765873,0.006 c -0.666502,3.9e-4 -1.200013,-0.53445 -1.20096,-1.20096 l -0.0077,-5.42034 c -2.64e-4,-0.25548 0.121878,-0.50008 0.314193,-0.73433 l 2.425692,-2.95485 c 0.07465,-0.0909 0.175905,-0.16017 0.29714,-0.20723 0.121291,-0.0471 0.26189,-0.0723 0.402043,-0.0723 z m -2.163691,0.20309 0.508495,0.4067 -1.234549,1.50275 -0.523999,-0.45269 z m 4.620906,0.32299 c -0.525423,0 -0.957046,0.43163 -0.957048,0.95705 -3e-6,0.52543 0.431622,0.95704 0.957048,0.95704 h 3.66386 c 0.525425,0 0.957051,-0.43161 0.957045,-0.95704 0,-0.52542 -0.431622,-0.95705 -0.957045,-0.95705 z m 0,0.52916 h 3.66386 c 0.239445,0 0.429945,0.18846 0.429948,0.42789 0,0.23945 -0.1905,0.42736 -0.429948,0.42736 h -3.66386 c -0.239451,0 -0.427884,-0.18791 -0.427882,-0.42736 0,-0.23943 0.188437,-0.42789 0.427882,-0.42789 z m -3.636987,2.19676 c -0.581366,0 -1.058333,0.47697 -1.058333,1.05834 v 4.49791 c 0,0.5814 0.476943,1.05885 1.058333,1.05885 H 42.5974 c 0.58139,0 1.058849,-0.47745 1.058849,-1.05885 v -4.49791 c 0,-0.58137 -0.477483,-1.05834 -1.058849,-1.05834 z m 0,0.52917 H 42.5974 c 0.295386,0 0.529683,0.23378 0.529683,0.52917 v 4.49791 c 0,0.29541 -0.234273,0.52969 -0.529683,0.52969 h -6.935494 c -0.295409,0 -0.529166,-0.23428 -0.529166,-0.52969 v -4.49791 c 0,-0.29539 0.23378,-0.52917 0.529166,-0.52917 z m 0.263549,0.52968 c -0.05618,0.008 -0.108701,0.0426 -0.1695,0.13023 -0.07352,0.12572 -0.03184,0.28762 0.09354,0.36173 l 1.139465,0.71779 -0.0021,2.0562 -1.143082,0.74156 c -0.124251,0.0775 -0.162144,0.24083 -0.08423,0.36484 0.07744,0.12306 0.239684,0.1608 0.363284,0.0842 l 1.133782,-0.70797 c 0.09841,0.067 0.216712,0.10645 0.343133,0.10645 h 3.060276 c 0.112414,0 0.217213,-0.0333 0.30851,-0.0873 l 1.234548,0.69453 c 0.127252,0.0725 0.289113,0.0283 0.36122,-0.0992 0.07222,-0.12777 0.02693,-0.2903 -0.101288,-0.36173 l -1.192173,-0.71779 0.0036,-2.03708 1.198375,-0.75861 c 0.124947,-0.0769 0.163343,-0.24083 0.08578,-0.36535 -0.133318,-0.15531 -0.216075,-0.12053 -0.365353,-0.0837 l -1.165301,0.72812 c -0.103251,-0.0783 -0.23019,-0.12661 -0.367938,-0.12661 h -3.060244 c -0.111787,0 -0.216011,0.0328 -0.306959,0.0863 l -1.175639,-0.69194 c -0.07571,-0.0222 -0.135541,-0.0422 -0.19172,-0.0346 z m 1.674318,1.16944 h 3.060277 c 0.05043,0 0.0863,0.0354 0.0863,0.0858 v 1.98438 c 0,0.0504 -0.03586,0.0858 -0.0863,0.0858 h -3.060277 c -0.05044,0 -0.0863,-0.0354 -0.0863,-0.0858 v -1.98438 c 0,-0.0504 0.03587,-0.0858 0.0863,-0.0858 z"
         sodipodi:nodetypes="cccccccccccccccccccccccccccccccccscccccccccccccccccccsccccsccccccccccsssssssssssssscccccccccccscccccscccscccccccccccsssssssssssssssssssssssssssssssscccccccccssccccccccccssccccsssssssss" />
    </g>
  </g>
</svg>
